<svg xmlns="http://www.w3.org/2000/svg" viewBox="0 0 96 96" role="img" aria-label="The Blood">
  <defs>
    <linearGradient id="bloodGlass" x1="0" x2="1" y1="0" y2="1">
      <stop offset="0" stop-color="#5b1917"/>
      <stop offset="0.5" stop-color="#b5362d"/>
      <stop offset="1" stop-color="#1d0909"/>
    </linearGradient>
    <linearGradient id="cork" x1="0" x2="0" y1="0" y2="1">
      <stop offset="0" stop-color="#d1b16d"/>
      <stop offset="1" stop-color="#624a25"/>
    </linearGradient>
  </defs>
  <path d="M38 9h20l-3 19 18 40c4 9-2 19-12 19H35c-10 0-16-10-12-19l18-40Z" fill="#130707" stroke="#c8b06b" stroke-width="3"/>
  <path d="M40 11h16l-2 15H42Z" fill="url(#cork)" stroke="#21140a" stroke-width="2"/>
  <path d="M31 65c8-7 15-4 22-10 5-4 9-9 16-6l5 17c3 8-3 16-11 16H34c-8 0-13-8-10-16Z" fill="url(#bloodGlass)"/>
  <path d="M34 34 25 64c-3 10 4 20 14 20h17" fill="none" stroke="#efcfa0" stroke-width="4" stroke-linecap="round" opacity=".35"/>
  <path d="M52 42c7 8 6 15 0 21-6-6-7-13 0-21Z" fill="#f1d4a0" opacity=".72"/>
</svg>
